<?xml version="1.0" encoding="utf-8"?>
<!-- Generator: Adobe Illustrator 24.1.3, SVG Export Plug-In . SVG Version: 6.00 Build 0)  -->
<svg version="1.1" xmlns="http://www.w3.org/2000/svg" xmlns:xlink="http://www.w3.org/1999/xlink" x="0px" y="0px"
	 viewBox="0 0 100 100" style="enable-background:new 0 0 100 100;" xml:space="preserve">
<style type="text/css">
	.st0{fill:none;stroke:#001A5C;stroke-width:0.75;stroke-miterlimit:10;}
	.st1{fill:none;stroke:#45C2FF;stroke-width:0.25;stroke-miterlimit:10;}
	.st2{fill:none;stroke:#F2F2F2;stroke-width:0.25;stroke-miterlimit:10;}
</style>
<g id="TT">
	<g>
		<path class="st0" d="M52.47,43.56c0-1.76,0.22-1.76,0.5-1.76h0.98c0.28,0,0.5,0.22,0.5,0.5v0.76c0,0.28-0.22,0.5-0.5,0.5h-2.95
			c-0.28,0-0.5,0.23-0.5,0.5v5.44c0,0.28-0.23,0.5-0.5,0.5H47.7c-0.27,0-0.5-0.22-0.5-0.5v-5.44c0-0.27-0.22-0.5-0.5-0.5h-2.95
			c-0.28,0-0.5-0.22-0.5-0.5v-2.51c0-0.28,0.22-0.5,0.5-0.5h12.17c0.28,0,0.5-0.23,0.5-0.5v-0.76c0-0.28-0.22-0.5-0.5-0.5h-10.2
			c-0.27,0-0.5,0.22-0.5,0.5v2.51c0,0.28,0.23,0.5,0.5,0.5h2.95c0.27,0,0.5,0.22,0.5,0.5v5.44c0,0.27,0.22,0.5,0.5,0.5h2.29
			c0.27,0,0.5-0.23,0.5-0.5V43.56z"/>
	</g>
</g>
<g id="TTthin">
	<g>
		<path class="st1" d="M52.73,43.58c0-0.28,0-0.73,0-1v-0.76c0-0.28,0.22-0.5,0.5-0.5h0.98c0.28,0,0.5,0.22,0.5,0.5v0.76
			c0,0.27-0.22,0.5-0.5,0.5h-2.95c-0.28,0-0.5,0.22-0.5,0.5v5.44c0,0.28-0.23,0.5-0.5,0.5h-2.29c-0.28,0-0.5-0.22-0.5-0.5v-5.44
			c0-0.28-0.23-0.5-0.5-0.5h-2.95c-0.27,0-0.5-0.23-0.5-0.5v-2.51c0-0.28,0.23-0.5,0.5-0.5h12.17c0.27,0,0.5-0.23,0.5-0.5v-0.76
			c0-0.27-0.23-0.5-0.5-0.5h-10.2c-0.27,0-0.5,0.23-0.5,0.5v2.51c0,0.28,0.23,0.5,0.5,0.5h2.95c0.28,0,0.5,0.22,0.5,0.5v5.44
			c0,0.27,0.22,0.5,0.5,0.5h2.29c0.28,0,0.5-0.23,0.5-0.5V43.58z"/>
	</g>
</g>
<g id="name">
	<g>
		<path class="st2" d="M36.27,54c-0.09-0.3-0.2-0.61-0.31-0.78c-0.16-0.25-0.25-0.32-0.79-0.32H34.2v4.55c0,0.73,0.08,0.83,1,0.89
			v0.26h-2.82v-0.26c0.9-0.06,0.98-0.15,0.98-0.89v-4.55h-0.88c-0.53,0-0.69,0.06-0.85,0.34c-0.12,0.19-0.19,0.41-0.32,0.76h-0.29
			c0.06-0.57,0.12-1.16,0.15-1.68h0.22c0.15,0.22,0.25,0.21,0.52,0.21h3.84c0.27,0,0.35-0.04,0.5-0.21h0.23
			c0,0.44,0.04,1.11,0.09,1.65L36.27,54z"/>
		<path class="st2" d="M38.48,54.4c1.21,0,2.12,0.89,2.12,2.09c0,1.51-1.16,2.23-2.12,2.23c-1.34,0-2.15-1.04-2.15-2.08
			C36.33,55.12,37.56,54.4,38.48,54.4z M38.37,54.71c-0.59,0-1.13,0.55-1.13,1.63c0,1.19,0.54,2.04,1.34,2.04
			c0.6,0,1.11-0.42,1.11-1.7C39.69,55.6,39.22,54.71,38.37,54.71z"/>
		<path class="st2" d="M46.56,58.61v-0.26c0.57-0.06,0.64-0.09,0.64-0.75v-1.56c0-0.66-0.23-1.08-0.83-1.08
			c-0.37,0-0.71,0.2-1.08,0.49c0.01,0.11,0.03,0.22,0.03,0.4v1.81c0,0.59,0.09,0.63,0.62,0.69v0.26h-2.08v-0.26
			c0.6-0.06,0.69-0.09,0.69-0.71v-1.61c0-0.69-0.22-1.07-0.81-1.07c-0.39,0-0.77,0.25-1.07,0.49v2.19c0,0.62,0.07,0.65,0.62,0.71
			v0.26H41.2v-0.26c0.64-0.06,0.7-0.09,0.7-0.71V55.7c0-0.6-0.04-0.63-0.58-0.73v-0.23c0.46-0.07,0.91-0.19,1.35-0.37
			c0,0.22,0,0.53,0,0.76c0.2-0.15,0.41-0.31,0.72-0.49c0.24-0.15,0.46-0.24,0.77-0.24c0.47,0,0.86,0.28,1.06,0.77
			c0.27-0.21,0.52-0.36,0.77-0.52c0.21-0.13,0.48-0.24,0.77-0.24c0.76,0,1.22,0.52,1.22,1.44v1.8c0,0.63,0.06,0.65,0.61,0.71v0.26
			H46.56z"/>
		<path class="st2" d="M52.68,57.81c-0.62,0.75-1.3,0.91-1.61,0.91c-1.18,0-1.9-0.93-1.9-2.01c0-0.63,0.23-1.22,0.63-1.63
			c0.41-0.44,0.94-0.68,1.45-0.68c0.84,0,1.48,0.7,1.48,1.45c-0.01,0.19-0.04,0.27-0.19,0.31c-0.19,0.04-1.44,0.12-2.59,0.16
			c-0.03,1.25,0.77,1.76,1.46,1.76c0.4,0,0.77-0.16,1.13-0.48L52.68,57.81z M51.01,54.75c-0.45,0-0.88,0.4-1.02,1.16
			c0.54,0,1.09,0,1.66-0.03c0.17,0,0.23-0.05,0.23-0.19C51.9,55.2,51.56,54.75,51.01,54.75z"/>
		<path class="st2" d="M55.55,58.61h-2.23v-0.26c0.61-0.06,0.67-0.1,0.67-0.71V55.7c0-0.62-0.04-0.64-0.6-0.71v-0.23
			c0.48-0.08,0.91-0.19,1.37-0.38c0,0.31,0,0.72,0,1.03c0.34-0.49,0.75-1,1.23-1c0.36,0,0.56,0.21,0.56,0.45
			c0,0.21-0.16,0.42-0.33,0.51c-0.1,0.06-0.17,0.05-0.25-0.02c-0.15-0.14-0.26-0.23-0.44-0.23c-0.2,0-0.56,0.29-0.78,0.77v1.76
			c0,0.62,0.05,0.66,0.8,0.72V58.61z"/>
		<path class="st2" d="M64.65,57.01c-0.07,0.32-0.3,1.2-0.4,1.6h-5.05l-0.09-0.15c1.35-1.79,2.7-3.65,4.07-5.55h-1.91
			c-0.86,0-1.01,0.06-1.21,0.35c-0.1,0.12-0.24,0.43-0.37,0.78l-0.29-0.01c0.05-0.49,0.17-1.3,0.18-1.71h0.25
			c0.11,0.22,0.22,0.21,0.51,0.21h3.92l0.08,0.15c-1.35,1.82-2.66,3.63-4,5.52c0.3,0.02,0.93,0.03,1.59,0.03
			c1.27,0,1.56-0.05,1.83-0.34c0.2-0.2,0.42-0.56,0.59-0.95L64.65,57.01z"/>
		<path class="st2" d="M65.14,58.61v-0.26c0.61-0.06,0.68-0.1,0.68-0.74v-1.92c0-0.58-0.03-0.62-0.61-0.71v-0.22
			c0.5-0.08,0.96-0.21,1.38-0.37c0,0.39,0,0.78,0,1.18v2.05c0,0.63,0.07,0.68,0.7,0.74v0.26H65.14z M66.15,53.46
			c-0.27,0-0.51-0.23-0.51-0.5c0-0.3,0.24-0.51,0.52-0.51c0.27,0,0.5,0.21,0.5,0.51C66.65,53.23,66.43,53.46,66.15,53.46z"/>
		<path class="st2" d="M72,54.76c-0.52,0.07-0.59,0.14-0.84,0.7c-0.32,0.75-0.87,1.99-1.38,3.25H69.5
			c-0.41-1.07-0.88-2.18-1.34-3.28c-0.22-0.54-0.3-0.6-0.81-0.67v-0.25h1.98v0.25c-0.53,0.07-0.55,0.13-0.4,0.53
			c0.24,0.64,0.65,1.63,0.92,2.29c0.35-0.83,0.67-1.6,0.88-2.19c0.17-0.46,0.14-0.56-0.5-0.63v-0.25H72V54.76z"/>
	</g>
</g>
</svg>
