<?xml version="1.0" standalone="no"?>
<!DOCTYPE svg PUBLIC "-//W3C//DTD SVG 20010904//EN"
 "http://www.w3.org/TR/2001/REC-SVG-20010904/DTD/svg10.dtd">
<svg version="1.0" xmlns="http://www.w3.org/2000/svg"
 width="137.000000pt" height="137.000000pt" viewBox="0 0 137.000000 137.000000"
 preserveAspectRatio="xMidYMid meet">
<metadata>
Created by potrace 1.11, written by Peter Selinger 2001-2013
</metadata>
<g transform="translate(0.000000,137.000000) scale(0.100000,-0.100000)"
fill="#000000" stroke="none">
<path d="M217 1320 c-9 -13 -12 -42 -10 -90 l2 -70 -77 0 c-42 0 -84 -5 -92
-10 -12 -7 -15 -42 -16 -192 0 -101 3 -191 8 -200 8 -16 27 -18 183 -18 l175
0 0 -354 c0 -304 2 -355 15 -366 22 -19 367 -19 389 -1 12 10 16 33 16 92 l0
79 79 0 c58 0 82 4 91 15 10 12 13 81 13 275 l0 260 76 0 c42 0 82 4 90 9 19
12 24 184 5 209 -9 13 -29 17 -91 17 -43 1 -90 -3 -105 -8 -28 -9 -28 -10 -28
-92 l0 -83 -82 0 c-61 0 -85 -4 -93 -15 -7 -10 -11 -98 -10 -267 0 -159 -3
-254 -10 -259 -5 -4 -35 -7 -65 -7 l-55 1 0 352 c0 275 -3 355 -13 365 -10 10
-57 13 -180 13 l-167 0 0 65 0 65 538 0 c445 0 539 2 546 14 13 20 13 178 1
201 -10 20 -22 20 -565 20 -538 0 -554 -1 -568 -20z m1084 -44 c1 -6 2 -35 4
-63 l2 -53 -523 0 -524 0 0 63 0 63 520 1 c370 0 520 -3 521 -11z m-1094 -251
c1 -63 5 -81 19 -92 13 -9 62 -13 181 -13 l163 0 0 -349 c0 -304 2 -352 16
-365 11 -12 36 -16 93 -16 l77 0 -1 -63 -2 -62 -154 0 -154 0 -1 353 c0 245
-4 356 -12 364 -7 7 -69 11 -182 11 l-170 0 -1 86 c-1 128 1 212 5 220 3 4 31
6 63 6 l58 -1 2 -79z m915 -162 c1 -30 1 -59 -2 -63 -3 -5 -32 -8 -65 -7 l-60
2 0 60 0 60 50 5 c28 3 55 4 62 2 6 -2 13 -28 15 -59z m-182 -371 l0 -248 -62
1 -63 1 -3 247 -2 247 65 0 65 0 0 -248z"/>
</g>
</svg>
